PathFileType	4	(X/Y/Z)	Patient4_TMGait_0pt6_01_left_27.trc.trc
DataRate	CameraRate	NumFrames	NumMarkers	Units	OrigDataRate	OrigDataStartFrame	OrigNumFrames
85.365853658537	85.365853658537	4	33	mm	85.365853658537	71	       141
Frame#	Time	Sacral			L.Shoulder			Chest			R.Shoulder			Neck			R.ASIS			L.ASIS			R.Thigh.Superior			R.Thigh.Lateral			R.Thigh.Inferior			R.Patella			L.Thigh.Superior			L.Thigh.Lateral			L.Thigh.Inferior			L.Patella			L.Shank.Superior			L.Shank.Lateral			L.Shank.Inferior			R.Shank.Superior			R.Shank.Lateral			R.Shank.Inferior			R.Heel			R.Midfoot.Superior			R.Midfoot.Lateral			R.Toe			L.Heel			L.Midfoot.Lateral			L.Midfoot.Superior			L.Toe			L.Elbow			L.Wrist			R.Elbow			R.Wrist			
		X1	Y1	Z1	X2	Y2	Z2	X3	Y3	Z3	X4	Y4	Z4	X5	Y5	Z5	X6	Y6	Z6	X7	Y7	Z7	X8	Y8	Z8	X9	Y9	Z9	X10	Y10	Z10	X11	Y11	Z11	X12	Y12	Z12	X13	Y13	Z13	X14	Y14	Z14	X15	Y15	Z15	X16	Y16	Z16	X17	Y17	Z17	X18	Y18	Z18	X19	Y19	Z19	X20	Y20	Z20	X21	Y21	Z21	X22	Y22	Z22	X23	Y23	Z23	X24	Y24	Z24	X25	Y25	Z25	X26	Y26	Z26	X27	Y27	Z27	X28	Y28	Z28	X29	Y29	Z29	X30	Y30	Z30	X31	Y31	Z31	X32	Y32	Z32	X33	Y33	Z33	

71	33.690000000000	737.635309353519	1005.074901384965	446.236806798547	931.630000277673	1438.128267962783	288.495995991750	1017.099777715153	1364.095650625309	456.386340749981	916.740702627320	1432.821817616309	621.916318569319	895.503385337731	1493.505352158257	442.414343135968	954.662215246861	943.588591128083	583.272590196341	961.175082491482	958.051980855348	307.762939828650	1024.073113357616	762.402578855921	556.142501168474	972.804119235973	644.364401052470	624.885303827406	1058.345238330674	602.891831056654	544.289603197727	1088.911152839081	523.935186285051	559.278585625092	968.631104247931	730.768498037056	341.570501824582	858.347658275379	632.141403850484	276.407222862913	917.090700502421	541.749496248496	345.697072720497	901.955962201197	474.083744081643	356.573462445251	869.902364202200	406.922093159016	348.630372563174	770.143675771300	301.894734587777	296.816517155375	803.315764287199	188.073527057995	372.973006636508	1078.872738546957	436.971206357144	568.659223428129	1033.494711486132	319.022178995089	628.915474240656	1108.563189099295	239.030852910346	575.441217813600	1027.347507486992	49.445346284119	540.869996180684	1187.493793152981	125.420518994554	582.920291750612	1111.942139965626	46.319955053009	613.977163630688	1313.357770940228	90.926878519279	607.244873737060	662.164026624569	39.363631767357	417.228057286780	735.348735644725	35.457890422606	336.239898902195	819.276817157845	95.301726815670	362.479344642379	947.451732749606	41.110790848328	333.230818173766	1027.160481282195	1121.247717998666	131.197291812309	1281.897724846251	1076.198135716814	143.803762437387	761.699593516870	1122.381548860659	718.983681689125	713.705490867060	865.949188164947	725.493096987591	
72	33.701714285714	738.869772313723	1003.818974847568	448.024554750803	931.822691214889	1436.959395257683	289.946720897939	1017.367607776218	1363.242587287475	457.919960102201	916.810874235747	1431.953912174162	623.358710939292	895.567172496630	1492.441164539765	443.790445123748	955.702072374369	942.337018190092	585.108253422440	962.290940017133	956.962305198756	309.493485898465	1024.671634527561	760.591922128332	558.161409021203	971.269167472521	642.022431137465	625.109907135795	1057.582960930793	600.881135284846	545.557527840160	1086.587820850293	521.586105304013	559.589097679947	968.363912408710	729.390271580454	342.732770682396	857.160567932394	631.484687692490	277.662625861623	915.483562589061	540.533591032786	346.497981199640	899.944695962440	472.565634048449	357.284094789269	866.876492028680	405.789995318792	349.297144286012	765.644224394579	302.141094143723	297.271178717848	797.483398354896	187.661753591885	373.055437036500	1076.200793605156	434.018445242315	568.321860900303	1029.237500381925	316.148947022715	627.230089156005	1103.925151573585	235.957075756801	573.900543411172	1021.123844004219	48.056135060814	537.847424095661	1181.860630180778	122.159861412650	581.322224196727	1104.984957734638	44.307931281167	611.676234061921	1306.925267429964	85.975293382969	606.313579864509	655.051241415350	39.543287583282	417.002362675621	728.335764949082	35.433992500346	336.163129622029	812.328063128481	95.284379262419	362.365225737809	940.482238425541	40.891737279897	333.164788643807	1027.534867400004	1120.171302297427	132.703362622011	1282.371194555128	1076.431836648126	146.087864550509	762.495562617575	1121.141167624846	720.408335150076	715.601106728674	864.518755752835	727.103647675687	
73	33.713428571429	740.226034227751	1002.493896586586	450.067476853111	931.834847639731	1435.743806907477	291.496806940820	1017.618648455900	1362.436016009760	459.512261578309	916.897169572932	1431.040803170943	624.931838256524	895.549159184456	1491.354173490076	445.275852853326	957.009915568383	941.058381415456	587.024371156711	963.530060525082	955.911380891391	311.338396616375	1025.797197161617	758.856915559594	560.230714890532	970.059236730946	639.666982470647	625.177461266705	1057.293894920207	598.950468545879	546.785721960213	1084.521705727486	518.989032891153	559.663164979951	968.337006179192	728.030269426996	343.854293736560	856.174678858213	630.807138462392	279.016387652126	914.236434897795	539.279931065530	347.288699829921	898.385857464428	470.928562828414	357.952875923362	864.150852087238	404.588550851609	349.969412627488	761.288211284862	302.465351650276	297.790480467006	791.747851679521	187.271297502265	373.130212868293	1073.445623013019	430.748447021838	567.736466559584	1024.434146598663	313.217508331893	625.478035957267	1098.159109097876	232.427186203773	572.137562047682	1012.699014305353	46.677407597238	535.059172333969	1174.389525754897	118.323262872627	579.322983160844	1095.953137326172	42.285029603845	609.513304468227	1298.609979933731	80.083803276032	604.970424587255	647.929285212702	39.819503218744	416.744495845744	721.335763774575	35.416709753005	336.073397441956	805.429325994958	95.270410503800	362.208425607804	933.543236422803	40.670658856188	333.074839506006	1027.535162098609	1118.821184994852	134.458443235509	1282.398900796513	1075.560165540236	148.431905820947	764.039439884711	1119.387425069423	721.968865421477	718.980325336417	862.457819950280	728.775344765420	
74	33.725142857143	741.670260262304	1001.150673663150	452.334355609637	931.672681685913	1434.521011068316	293.156788225154	1017.865725706990	1361.703165339270	461.168238979226	917.025273895217	1430.105435399519	626.650941257182	895.474546536065	1490.285342558439	446.886756691743	958.572043004724	939.799720267734	588.997552497053	964.858497250512	954.933470650399	313.288106830633	1027.327229994314	757.154340173026	562.311730825217	969.137184078289	637.378443221071	625.174931187338	1057.319327366723	597.102852783215	547.928494480350	1082.618171367551	516.238291908354	559.496338453467	968.578943423521	726.732391705100	344.913333820173	855.450527430467	630.115169443440	280.462316036981	913.441869251001	538.013036367881	348.078687541049	897.392713818781	469.179747012646	358.558608790527	861.807300799178	403.330262922258	350.642065611077	757.145354276414	302.908405155350	298.383729554683	786.165351281162	186.937327297707	373.195792617064	1070.657451056704	427.334136087629	566.976932578427	1019.398688438902	310.328016397899	623.804792935891	1091.723834832640	228.668074928273	570.260870396417	1002.867709423396	45.341688205920	532.653634422088	1165.754490064566	114.226274273272	577.015576868134	1085.680417907540	40.399819374319	607.595668379949	1289.165246485026	73.789797163501	603.262814231229	640.818426125515	40.289188249478	416.459286524813	714.357295220266	35.450029640431	335.972175628795	798.621944491353	95.264425212363	361.999603208879	926.636374106078	40.443622426016	332.961995370835	1027.148237887822	1117.220514945956	136.467002599976	1281.964285734532	1073.603446689677	150.824944762853	766.323364333660	1117.177883592527	723.679011859245	723.785394345907	859.836251074394	730.499454311379	
